<svg height="512" viewBox="0 0 512 512" width="512" xmlns="http://www.w3.org/2000/svg"><g><path d="m376 184h-176a8 8 0 0 0 0 16h176a8 8 0 0 0 0-16z"/><path d="m376 208h-176a8 8 0 0 0 0 16h176a8 8 0 0 0 0-16z"/><path d="m200 248h128a8 8 0 0 0 0-16h-128a8 8 0 0 0 0 16z"/><path d="m360 248a8 8 0 0 0 0-16h-8a8 8 0 0 0 0 16z"/><path d="m376 296h-176a8 8 0 0 0 0 16h176a8 8 0 0 0 0-16z"/><path d="m376 320h-176a8 8 0 0 0 0 16h176a8 8 0 0 0 0-16z"/><path d="m200 360h128a8 8 0 0 0 0-16h-128a8 8 0 0 0 0 16z"/><path d="m360 360a8 8 0 0 0 0-16h-8a8 8 0 0 0 0 16z"/><path d="m376 408h-176a8 8 0 0 0 0 16h176a8 8 0 0 0 0-16z"/><path d="m376 432h-176a8 8 0 0 0 0 16h176a8 8 0 0 0 0-16z"/><path d="m328 456h-128a8 8 0 0 0 0 16h128a8 8 0 0 0 0-16z"/><path d="m360 456h-8a8 8 0 0 0 0 16h8a8 8 0 0 0 0-16z"/><path d="m421.66 58.34-48-48a8.008 8.008 0 0 0 -5.66-2.34h-272a8 8 0 0 0 -8 8v480a8 8 0 0 0 8 8h320a8 8 0 0 0 8-8v-432a8.008 8.008 0 0 0 -2.34-5.66zm-45.66-23.03 20.69 20.69h-20.69zm32 452.69h-304v-464h256v40a8 8 0 0 0 8 8h40z"/><path d="m168 184h-32a8 8 0 0 0 -8 8v24a8 8 0 0 0 8 8h32a8 8 0 0 0 8-8v-24a8 8 0 0 0 -8-8zm-8 24h-16v-8h16z"/><path d="m168 296h-32a8 8 0 0 0 -8 8v24a8 8 0 0 0 8 8h32a8 8 0 0 0 8-8v-24a8 8 0 0 0 -8-8zm-8 24h-16v-8h16z"/><path d="m168 408h-32a8 8 0 0 0 -8 8v24a8 8 0 0 0 8 8h32a8 8 0 0 0 8-8v-24a8 8 0 0 0 -8-8zm-8 24h-16v-8h16z"/><path d="m256 40a64 64 0 1 0 64 64 64.072 64.072 0 0 0 -64-64zm0 112a48 48 0 1 1 48-48 48.051 48.051 0 0 1 -48 48z"/><path d="m280 104v24a8 8 0 0 1 -8 8h-8a8 8 0 0 1 -16 0h-8a8 8 0 0 1 0-16h24v-8h-24a8 8 0 0 1 -8-8v-24a8 8 0 0 1 8-8h8a8 8 0 0 1 16 0h8a8 8 0 0 1 0 16h-24v8h24a8 8 0 0 1 8 8z"/></g></svg>